PathFileType	4	(X/Y/Z)	Patient4_TMGait_0pt2_03_right_04.trc.trc
DataRate	CameraRate	NumFrames	NumMarkers	Units	OrigDataRate	OrigDataStartFrame	OrigNumFrames
44.728434504792	44.728434504792	6	33	mm	44.728434504792	1	       141
Frame#	Time	Sacral			L.Shoulder			Chest			R.Shoulder			Neck			R.ASIS			L.ASIS			R.Thigh.Superior			R.Thigh.Lateral			R.Thigh.Inferior			R.Patella			L.Thigh.Superior			L.Thigh.Lateral			L.Thigh.Inferior			L.Patella			L.Shank.Superior			L.Shank.Lateral			L.Shank.Inferior			R.Shank.Superior			R.Shank.Lateral			R.Shank.Inferior			R.Heel			R.Midfoot.Superior			R.Midfoot.Lateral			R.Toe			L.Heel			L.Midfoot.Lateral			L.Midfoot.Superior			L.Toe			L.Elbow			L.Wrist			R.Elbow			R.Wrist			
		X1	Y1	Z1	X2	Y2	Z2	X3	Y3	Z3	X4	Y4	Z4	X5	Y5	Z5	X6	Y6	Z6	X7	Y7	Z7	X8	Y8	Z8	X9	Y9	Z9	X10	Y10	Z10	X11	Y11	Z11	X12	Y12	Z12	X13	Y13	Z13	X14	Y14	Z14	X15	Y15	Z15	X16	Y16	Z16	X17	Y17	Z17	X18	Y18	Z18	X19	Y19	Z19	X20	Y20	Z20	X21	Y21	Z21	X22	Y22	Z22	X23	Y23	Z23	X24	Y24	Z24	X25	Y25	Z25	X26	Y26	Z26	X27	Y27	Z27	X28	Y28	Z28	X29	Y29	Z29	X30	Y30	Z30	X31	Y31	Z31	X32	Y32	Z32	X33	Y33	Z33	

1	8.310000000000	812.602224154105	1004.113657682038	393.895245329571	991.230654375993	1426.842110134231	197.061286906366	1098.743450128406	1356.787867994303	354.100994176375	1028.242040951018	1434.319922643956	530.918904226603	980.592490748167	1491.923501213015	355.081921954199	1046.200292562175	938.894069002749	502.074857481682	1022.466865388224	954.572688532430	229.921385371060	1101.698726528175	743.895563716067	481.189357094277	1037.468014439827	633.747780273768	558.110160174548	1116.472084429966	576.890134084453	479.801235303010	1116.900440481800	468.741462008508	504.625357467442	1086.658755594487	752.955911928604	272.996717641115	1014.855053009175	622.576776648248	218.931357521566	1104.439846947576	558.620280165376	289.490485538277	1110.324363628924	486.168288219038	301.033048189864	1078.893549928444	411.214725073147	296.303959412666	987.389003183247	299.471857768450	242.660411372308	1023.601341193564	188.902730868181	321.256836614032	1041.820297959947	400.358652502041	519.414964470085	930.585596512315	361.790826160300	597.113731941899	909.205229356041	251.978890733390	550.930028080203	704.521280621994	190.674998071964	552.208244158749	876.657158348196	130.081963427121	571.423923394515	771.808400754726	129.661675017855	616.636195748154	944.109498223447	30.776934135628	585.575373755417	884.701018835013	38.665580497455	358.442687109916	963.344054916120	35.879572051231	282.387976704779	1045.582022533697	96.015484646054	314.207695658705	1175.231675522207	42.815578996847	293.170680653464	1008.794414207464	1075.538469521819	72.524420664837	1110.694509375738	833.669513116837	84.635100985336	1073.124029894751	1079.528286173961	646.907973780439	1243.770235987987	880.911713078282	634.651561672825	
2	8.332357142857	812.077198709497	1000.352994133122	389.390122518444	993.366991103981	1425.057466705945	196.426682018768	1097.906082111653	1354.286446430927	355.007951985644	1023.997943270250	1430.250342142692	531.029171496953	979.909194386556	1489.258219685904	354.772057696146	1045.324471063395	937.205745504731	500.218992285664	1024.106312787406	952.235898879771	227.450797657703	1105.984359292583	745.583122962709	477.502025453544	1046.238476321925	634.214804291918	555.303804899329	1126.048735616913	579.258046461229	476.063653849761	1129.110596983340	470.024065975781	501.572875222816	1089.437728299982	751.153217589003	271.214708390295	1018.781293090625	620.136075428101	217.611806932014	1108.568136639493	556.845516867966	289.169536817951	1114.886347921778	483.882991804440	301.041365957000	1081.614470364587	408.548552311215	296.579800562643	988.480889949032	298.455803385702	242.506234299261	1021.726746464830	187.520735517877	321.478640961511	1052.785971737751	401.596144165683	516.941438464338	940.294106693582	365.783650823141	594.464117493864	916.753664073259	256.176216373877	549.083311606725	711.031200282595	199.925702615203	550.709892625434	881.944568177691	135.356881263009	570.189132165947	776.926034238362	137.421488522723	615.293768032614	946.616015152231	31.149276281337	584.981706084580	880.356166232499	38.834018383752	358.360164335679	959.005463793372	35.929391504038	282.347313185055	1041.320058244899	95.831737997925	314.342815298448	1170.922672600447	42.426298087720	293.152871515065	1022.298185869523	1075.751395667569	70.458619829048	1136.091197535089	840.378324809568	83.278442007089	1048.545277436490	1074.674070357667	644.740511729922	1192.348605187622	862.424982610487	639.728708907766	
3	8.354714285714	811.575554971475	996.731321901233	384.801076452528	995.640296629866	1423.381692553261	195.869761759608	1097.038983436527	1351.908136671468	356.074668444098	1019.526690891410	1426.338920983373	531.170637531623	979.205972114813	1486.709947289634	354.482953192843	1044.361749233126	935.590333181090	498.422702315490	1025.861971820626	950.024381269415	225.058982214950	1110.123497886518	747.384942614869	474.030487146407	1054.742126652601	634.836965063101	552.676030402975	1135.433999526765	581.776776029793	472.635367187639	1141.193763962061	471.590935169309	498.835177376948	1092.140716943431	749.323342050006	269.467882526556	1022.500933250215	617.723471412549	216.300142911492	1112.398760146987	555.038406201204	288.858910413068	1119.082150880514	481.603628973192	301.072199061938	1084.013166263843	405.915393873413	296.848045343119	989.279614678340	297.442750617092	242.303909139605	1019.607784732547	186.158120844189	321.673291381657	1063.822944169699	402.915060553773	514.722000216318	950.154431337190	369.388833895465	592.023262004209	924.941580996588	259.836643069552	547.412505558939	718.295281634442	207.469629936027	549.244731286298	888.399122439597	140.029456761816	569.126574016485	783.159444513245	143.951092649646	614.082427920899	951.014755109057	31.568679047503	584.658452177829	875.814639085291	38.993224957104	358.266484398339	954.479837207653	35.971039735897	282.293615773040	1036.866127738335	95.647881754799	314.461731072802	1166.425484513933	42.050649867796	293.134433635691	1036.091068538193	1076.245436518306	68.462825676616	1162.301959513572	848.001937785187	82.022407803016	1022.935838725022	1070.599351535539	642.699038487599	1139.552572004863	845.448162150124	644.413282043457	
4	8.377071428571	811.120841354961	993.493442023100	380.279271474084	998.032297792417	1421.959609713608	195.454575046941	1096.165614697943	1349.838221533184	357.336196574495	1014.911716609129	1422.855838538472	531.348608746950	978.509276864888	1484.465883430818	354.236070678026	1043.291186437221	934.186436266000	496.813485296247	1027.719874363072	948.108990440072	222.904911827973	1113.848018568914	749.291577655656	471.024775681621	1062.474958493536	635.671513035844	550.419262867625	1144.094533272756	584.411643069695	469.787389280312	1152.531301801198	473.519830461307	496.648760757609	1094.590029327120	747.543020432921	267.875834147124	1025.733602900993	615.477636655218	215.068970362590	1115.590168005198	553.274163608480	288.596371371059	1122.517787092744	479.444569411439	301.149720051087	1085.794599316971	403.458739218938	297.105133825813	989.587803421894	296.487281782693	242.053118131296	1017.197834937335	184.889978754379	321.827963228823	1074.488183548172	404.325396332467	512.961924000967	959.865882422960	372.287203176459	590.000596912381	933.787588214696	262.599233389528	546.083044037909	726.525453322915	212.250577908124	547.947164446425	896.388763054371	143.673647768846	568.363753798578	790.914124170948	148.456362349293	613.139852958067	958.061856591197	32.085861991422	584.712412260808	871.165130909178	39.133412047825	358.161675852955	949.856531351399	35.999574601777	282.225538927711	1032.305336970822	95.472795843751	314.554365168361	1161.828545027721	41.710676633683	293.116486046068	1049.753365406399	1077.149185746444	66.662548082925	1188.613806434624	856.691448092826	80.989051681849	996.938276433015	1067.835724604740	640.866005232501	1087.016987085633	831.283747149996	648.344064638194	
5	8.399428571429	810.730758988134	990.865447466681	375.948633897918	1000.538932279266	1420.931051649266	195.235254097347	1095.305919436080	1348.252520081977	358.825564569002	1010.223254247956	1420.051896809201	531.564709595997	977.846102265573	1482.702850721107	354.048500353641	1042.083885507210	933.139483232267	495.516882474435	1029.664811101562	946.642365757888	221.136821851241	1116.920977971344	751.308447202043	468.699270033762	1068.994949282137	636.769362098916	548.701826327148	1151.556641309195	587.135197260390	467.738575561406	1162.577478626168	475.884123019391	495.195699395709	1096.620028749397	745.888792078269	266.557635471987	1028.223751235514	613.535982968948	213.983073723649	1117.825263633411	551.625775759836	288.422380880269	1124.828507739359	477.514258665022	301.299120188652	1086.681075471805	401.312776129899	297.351148396047	989.218767576757	295.642491282185	241.759425072310	1014.440900565080	183.785918761962	321.935692126965	1084.409422393489	405.851032876866	511.825896922990	969.213874692573	374.211233768270	588.578636460627	943.360268340906	264.184990569732	545.241123004676	736.024314376389	213.437438201604	546.956264313077	906.288204156464	145.956189008621	568.019968252557	800.625049283568	150.315044886305	612.594848599878	968.412185475601	32.730833742163	585.236634121179	866.472800454645	39.246651754967	358.046623036222	945.199859544090	36.011682753254	282.143060480489	1027.698681200392	95.314792864486	314.613531357848	1157.195377684886	41.424585668607	293.100519895369	1062.954904123393	1078.581815849508	65.166878926253	1214.437595021775	866.601755710248	80.293217220678	971.122802864026	1066.823659200340	639.271045059769	1036.164040257037	820.907929906223	651.238616794217	
6	8.421785714286	810.414304728131	989.031782922258	371.901935636614	1003.166186567483	1420.413634879466	195.252069602495	1094.476514724378	1347.297313728196	360.567815945805	1005.521827249836	1418.132328570751	531.817374500705	977.243443836764	1481.567496161945	353.932948363035	1040.707735293459	932.585335344393	494.647208904315	1031.679689600451	945.742547858183	219.880491287796	1119.153477212231	753.446382347418	467.211143269949	1073.958944873433	638.164235549011	547.649495876877	1157.440595947095	589.920565667462	466.630494913541	1170.897252715590	478.736039974941	494.581252352272	1098.089635603640	744.429934497277	265.623565286703	1029.765196697562	612.021247270928	213.096437488334	1118.843457224361	550.158796664658	288.377996944298	1125.716575818216	475.905712722174	301.544976181738	1086.442379306751	399.590346722278	297.590466519662	988.018321907081	294.955567961432	241.435958368992	1011.282851737782	182.903867427418	321.996845009185	1093.305124094454	407.525421195965	511.418857627307	978.078477154987	374.978900609890	587.892550164051	953.750591596107	264.439495266031	544.996290402285	747.139701317334	210.539799387182	546.404473311703	918.416200740180	146.687787351927	568.186175922074	812.694563553248	149.164141393834	612.551228391747	982.516403504198	33.528232274607	586.282655289886	861.779642403170	39.327703991853	357.923471451701	940.549372286955	36.006108602201	282.047952028051	1023.083770648359	95.180943737687	314.636108380600	1152.564982724687	41.205121806285	293.088243174433	1075.468968100736	1080.633783613358	64.061094875754	1239.324092416794	877.855411972911	80.033560007842	945.982013849898	1067.853222845052	637.885383808530	988.145418162223	814.863320128074	652.921484368429	
